<svg preserveAspectRatio="none" width="100%" height="100%" overflow="visible" style="display: block;" viewBox="0 0 28 28" fill="none" xmlns="http://www.w3.org/2000/svg">
<g id="fa:facebook-square">
<path id="Vector" d="M21.4844 3C22.6594 3 23.6641 3.41718 24.4985 4.25155C25.3328 5.08591 25.75 6.0906 25.75 7.26563V21.4844C25.75 22.6594 25.3328 23.6641 24.4985 24.4985C23.6641 25.3328 22.6594 25.75 21.4844 25.75H18.6999V16.9373H21.6473L22.0916 13.5011H18.6999V11.3091C18.6999 10.7561 18.8159 10.3414 19.0479 10.0649C19.28 9.78847 19.7317 9.65023 20.4032 9.65023L22.2101 9.63542V6.5695C21.5881 6.48063 20.7093 6.4362 19.5737 6.4362C18.2308 6.4362 17.157 6.83116 16.3523 7.62109C15.5476 8.41102 15.1452 9.5268 15.1452 10.9684V13.5011H12.1829V16.9373H15.1452V25.75H7.26563C6.0906 25.75 5.08591 25.3328 4.25155 24.4985C3.41718 23.6641 3 22.6594 3 21.4844V7.26563C3 6.0906 3.41718 5.08591 4.25155 4.25155C5.08591 3.41718 6.0906 3 7.26563 3H21.4844Z" fill="url(#paint0_linear_0_18)"/>
</g>
<defs>
<linearGradient id="paint0_linear_0_18" x1="3" y1="13.2375" x2="25.75" y2="13.2375" gradientUnits="userSpaceOnUse">
<stop stop-color="#4F7CF7"/>
<stop offset="0.682692" stop-color="#7B5CFF"/>
</linearGradient>
</defs>
</svg>
