<svg preserveAspectRatio="none" width="100%" height="100%" overflow="visible" style="display: block;" viewBox="0 0 28 28" fill="none" xmlns="http://www.w3.org/2000/svg">
<g id="streamline:instagram-solid">
<path id="Vector" fill-rule="evenodd" clip-rule="evenodd" d="M7.8754 3C6.58269 3 5.34289 3.5134 4.42863 4.42731C3.51437 5.34122 3.0005 6.58082 3 7.87353V20.8746C3 22.1676 3.51366 23.4077 4.42797 24.322C5.34229 25.2363 6.58236 25.75 7.8754 25.75H20.8765C22.1692 25.7495 23.4088 25.2356 24.3227 24.3214C25.2366 23.4071 25.75 22.1673 25.75 20.8746V7.87353C25.7495 6.58114 25.2359 5.34183 24.322 4.42797C23.4082 3.51412 22.1689 3.0005 20.8765 3H7.8754ZM22.2788 7.88102C22.2788 8.25344 22.1309 8.6106 21.8675 8.87394C21.6042 9.13728 21.247 9.28522 20.8746 9.28522C20.5022 9.28522 20.145 9.13728 19.8817 8.87394C19.6183 8.6106 19.4704 8.25344 19.4704 7.88102C19.4704 7.5086 19.6183 7.15143 19.8817 6.88809C20.145 6.62476 20.5022 6.47681 20.8746 6.47681C21.247 6.47681 21.6042 6.62476 21.8675 6.88809C22.1309 7.15143 22.2788 7.5086 22.2788 7.88102ZM14.3778 10.4797C13.345 10.4797 12.3544 10.89 11.6241 11.6204C10.8938 12.3507 10.4835 13.3412 10.4835 14.3741C10.4835 15.4069 10.8938 16.3974 11.6241 17.1278C12.3544 17.8581 13.345 18.2684 14.3778 18.2684C15.4106 18.2684 16.4012 17.8581 17.1315 17.1278C17.8618 16.3974 18.2721 15.4069 18.2721 14.3741C18.2721 13.3412 17.8618 12.3507 17.1315 11.6204C16.4012 10.89 15.4106 10.4797 14.3778 10.4797ZM8.60933 14.3741C8.60933 12.8447 9.21688 11.3779 10.2983 10.2965C11.3798 9.21501 12.8465 8.60746 14.3759 8.60746C15.9053 8.60746 17.3721 9.21501 18.4535 10.2965C19.535 11.3779 20.1425 12.8447 20.1425 14.3741C20.1425 15.9035 19.535 17.3702 18.4535 18.4517C17.3721 19.5331 15.9053 20.1407 14.3759 20.1407C12.8465 20.1407 11.3798 19.5331 10.2983 18.4517C9.21688 17.3702 8.60933 15.9035 8.60933 14.3741Z" fill="url(#paint0_linear_0_11)"/>
</g>
<defs>
<linearGradient id="paint0_linear_0_11" x1="3" y1="13.2375" x2="25.75" y2="13.2375" gradientUnits="userSpaceOnUse">
<stop stop-color="#4F7CF7"/>
<stop offset="0.682692" stop-color="#7B5CFF"/>
</linearGradient>
</defs>
</svg>
