<svg preserveAspectRatio="none" width="100%" height="100%" overflow="visible" style="display: block;" viewBox="0 0 28 28" fill="none" xmlns="http://www.w3.org/2000/svg">
<g id="mingcute:linkedin-fill">
<path id="Vector" fill-rule="evenodd" clip-rule="evenodd" d="M21.9583 3C22.9639 3 23.9284 3.39948 24.6394 4.11055C25.3505 4.82163 25.75 5.78605 25.75 6.79167V21.9583C25.75 22.9639 25.3505 23.9284 24.6394 24.6394C23.9284 25.3505 22.9639 25.75 21.9583 25.75H6.79167C5.78605 25.75 4.82163 25.3505 4.11055 24.6394C3.39948 23.9284 3 22.9639 3 21.9583V6.79167C3 5.78605 3.39948 4.82163 4.11055 4.11055C4.82163 3.39948 5.78605 3 6.79167 3H21.9583ZM9.31944 11.8472C8.98424 11.8472 8.66277 11.9804 8.42574 12.2174C8.18871 12.4544 8.05556 12.7759 8.05556 13.1111V19.4306C8.05556 19.7658 8.18871 20.0872 8.42574 20.3243C8.66277 20.5613 8.98424 20.6944 9.31944 20.6944C9.65465 20.6944 9.97612 20.5613 10.2131 20.3243C10.4502 20.0872 10.5833 19.7658 10.5833 19.4306V13.1111C10.5833 12.7759 10.4502 12.4544 10.2131 12.2174C9.97612 11.9804 9.65465 11.8472 9.31944 11.8472ZM13.1111 10.5833C12.7759 10.5833 12.4544 10.7165 12.2174 10.9535C11.9804 11.1905 11.8472 11.512 11.8472 11.8472V19.4306C11.8472 19.7658 11.9804 20.0872 12.2174 20.3243C12.4544 20.5613 12.7759 20.6944 13.1111 20.6944C13.4463 20.6944 13.7678 20.5613 14.0048 20.3243C14.2418 20.0872 14.375 19.7658 14.375 19.4306V14.8047C14.7605 14.3699 15.4114 13.8593 16.1356 13.5497C16.5565 13.3702 17.1897 13.2969 17.6295 13.4359C17.7754 13.4729 17.9054 13.5563 17.9998 13.6735C18.0656 13.762 18.1667 13.9592 18.1667 14.375V19.4306C18.1667 19.7658 18.2998 20.0872 18.5369 20.3243C18.7739 20.5613 19.0954 20.6944 19.4306 20.6944C19.7658 20.6944 20.0872 20.5613 20.3243 20.3243C20.5613 20.0872 20.6944 19.7658 20.6944 19.4306V14.375C20.6944 13.5282 20.4796 12.7749 20.0322 12.1708C19.6205 11.623 19.0443 11.2212 18.3878 11.0244C17.2478 10.6667 15.9852 10.8652 15.1422 11.2267C14.8723 11.3427 14.6094 11.4744 14.3548 11.621C14.3018 11.3298 14.1483 11.0664 13.921 10.8768C13.6937 10.6871 13.4071 10.5833 13.1111 10.5833ZM9.31944 8.05556C8.98424 8.05556 8.66277 8.18871 8.42574 8.42574C8.18871 8.66277 8.05556 8.98424 8.05556 9.31944C8.05556 9.65465 8.18871 9.97612 8.42574 10.2131C8.66277 10.4502 8.98424 10.5833 9.31944 10.5833C9.65465 10.5833 9.97612 10.4502 10.2131 10.2131C10.4502 9.97612 10.5833 9.65465 10.5833 9.31944C10.5833 8.98424 10.4502 8.66277 10.2131 8.42574C9.97612 8.18871 9.65465 8.05556 9.31944 8.05556Z" fill="url(#paint0_linear_0_13)"/>
</g>
<defs>
<linearGradient id="paint0_linear_0_13" x1="3" y1="13.2375" x2="25.75" y2="13.2375" gradientUnits="userSpaceOnUse">
<stop stop-color="#4F7CF7"/>
<stop offset="0.682692" stop-color="#7B5CFF"/>
</linearGradient>
</defs>
</svg>
