<svg preserveAspectRatio="none" width="100%" height="100%" overflow="visible" style="display: block;" viewBox="0 0 58.0115 43.7822" fill="none" xmlns="http://www.w3.org/2000/svg">
<g id="Logo SVG">
<path id="Union" fill-rule="evenodd" clip-rule="evenodd" d="M38.1896 0.0776715C38.2408 -0.0276028 38.391 -0.0253743 38.439 0.0813847L57.9991 43.5871C58.0403 43.6786 57.9736 43.7822 57.8735 43.7822H38.1244C38.074 43.7822 38.0277 43.7547 38.0035 43.7103L30.1205 29.2562C30.0995 29.2176 30.098 29.1714 30.1164 29.1315L31.8321 25.4324C31.8797 25.3298 32.0234 25.3249 32.0777 25.4242L40.2717 40.3895C40.3201 40.4779 40.4127 40.5329 40.5132 40.5329H52.7658C52.9668 40.5329 53.1002 40.3238 53.0159 40.1405L38.2682 8.06336C38.2194 7.95735 38.0698 7.95599 38.0191 8.06107L20.8948 43.5659C20.8718 43.6136 20.8236 43.644 20.7707 43.644H0.275858C0.0756695 43.644 -0.0577133 43.4364 0.0248225 43.2534L18.6774 1.89609C18.7242 1.79243 18.8687 1.78662 18.9235 1.88624L28.6904 19.6398L38.1896 0.0776715ZM19.0598 9.46056C19.0059 9.35984 18.8604 9.3645 18.8131 9.46846L4.75939 40.3372C4.71773 40.4288 4.78441 40.5329 4.88471 40.5329H18.545L26.6983 23.7423L19.0598 9.46056Z" fill="var(--fill-0, #111827)"/>
</g>
</svg>
