<svg width="76" height="61" viewBox="0 0 76 61" fill="none" xmlns="http://www.w3.org/2000/svg">
<path fill-rule="evenodd" clip-rule="evenodd" d="M47.1838 0.0776715C47.2349 -0.0276028 47.3852 -0.0253743 47.4332 0.0813847L66.9933 43.5871C67.0344 43.6786 66.9677 43.7822 66.8677 43.7822H47.1185C47.0682 43.7822 47.0218 43.7547 46.9976 43.7103L39.1147 29.2562C39.0937 29.2176 39.0921 29.1714 39.1106 29.1315L40.8263 25.4324C40.8739 25.3298 41.0175 25.3249 41.0718 25.4242L49.2658 40.3895C49.3142 40.4779 49.4068 40.5329 49.5073 40.5329H61.7599C61.961 40.5329 62.0943 40.3238 62.0101 40.1405L47.2623 8.06336C47.2136 7.95735 47.0639 7.95599 47.0132 8.06106L29.8889 43.5659C29.8659 43.6136 29.8177 43.644 29.7649 43.644H9.27C9.06981 43.644 8.93643 43.4364 9.01896 43.2534L27.6716 1.89609C27.7183 1.79243 27.8629 1.78662 27.9177 1.88624L37.6845 19.6398L47.1838 0.0776715ZM28.0539 9.46056C28 9.35984 27.8546 9.3645 27.8072 9.46846L13.7535 40.3372C13.7119 40.4288 13.7785 40.5329 13.8788 40.5329H27.5391L35.6924 23.7423L28.0539 9.46056Z" fill="#111827"/>
<path d="M0.724387 52.0808H1.87142L3.40753 55.8301H3.46816L5.00427 52.0808H6.1513V57.255H5.25187V53.7002H5.20387L3.77387 57.2399H3.10182L1.67182 53.6927H1.62382V57.255H0.724387V52.0808ZM8.82434 57.3308C8.44536 57.3308 8.11692 57.2474 7.839 57.0807C7.56109 56.9139 7.34549 56.6807 7.19222 56.3809C7.04063 56.081 6.96483 55.7307 6.96483 55.3298C6.96483 54.929 7.04063 54.5778 7.19222 54.2763C7.34549 53.9748 7.56109 53.7407 7.839 53.5739C8.11692 53.4072 8.44536 53.3238 8.82434 53.3238C9.20331 53.3238 9.53175 53.4072 9.80967 53.5739C10.0876 53.7407 10.3023 53.9748 10.4539 54.2763C10.6072 54.5778 10.6838 54.929 10.6838 55.3298C10.6838 55.7307 10.6072 56.081 10.4539 56.3809C10.3023 56.6807 10.0876 56.9139 9.80967 57.0807C9.53175 57.2474 9.20331 57.3308 8.82434 57.3308ZM8.82939 56.5981C9.03488 56.5981 9.20668 56.5417 9.34479 56.4289C9.48291 56.3143 9.58565 56.161 9.65303 55.969C9.72208 55.777 9.75661 55.5631 9.75661 55.3273C9.75661 55.0898 9.72208 54.8751 9.65303 54.683C9.58565 54.4893 9.48291 54.3352 9.34479 54.2207C9.20668 54.1062 9.03488 54.0489 8.82939 54.0489C8.61885 54.0489 8.44368 54.1062 8.30388 54.2207C8.16576 54.3352 8.06218 54.4893 7.99312 54.683C7.92574 54.8751 7.89206 55.0898 7.89206 55.3273C7.89206 55.5631 7.92574 55.777 7.99312 55.969C8.06218 56.161 8.16576 56.3143 8.30388 56.4289C8.44368 56.5417 8.61885 56.5981 8.82939 56.5981ZM12.9002 57.3232C12.5953 57.3232 12.3225 57.2449 12.0816 57.0883C11.8408 56.9316 11.6504 56.7042 11.5106 56.4061C11.3708 56.108 11.3009 55.7459 11.3009 55.3197C11.3009 54.8885 11.3717 54.5247 11.5132 54.2283C11.6563 53.9302 11.8492 53.7053 12.0917 53.5537C12.3343 53.4004 12.6046 53.3238 12.9027 53.3238C13.1301 53.3238 13.3171 53.3625 13.4636 53.44C13.6102 53.5158 13.7264 53.6076 13.8123 53.7154C13.8982 53.8215 13.9647 53.9217 14.0119 54.0161H14.0498V52.0808H14.9669V57.255H14.0674V56.6436H14.0119C13.9647 56.7379 13.8965 56.8381 13.8072 56.9443C13.7179 57.0487 13.6 57.138 13.4535 57.2121C13.307 57.2862 13.1225 57.3232 12.9002 57.3232ZM13.1554 56.5729C13.3491 56.5729 13.5141 56.5207 13.6506 56.4162C13.787 56.3101 13.8906 56.1627 13.9613 55.9741C14.0321 55.7854 14.0674 55.5656 14.0674 55.3147C14.0674 55.0637 14.0321 54.8456 13.9613 54.6603C13.8923 54.475 13.7895 54.331 13.6531 54.2283C13.5184 54.1255 13.3524 54.0742 13.1554 54.0742C12.9516 54.0742 12.7815 54.1272 12.645 54.2333C12.5086 54.3394 12.4059 54.486 12.3368 54.6729C12.2677 54.8599 12.2332 55.0738 12.2332 55.3147C12.2332 55.5572 12.2677 55.7737 12.3368 55.964C12.4075 56.1526 12.5111 56.3017 12.6476 56.4112C12.7857 56.519 12.9549 56.5729 13.1554 56.5729ZM17.6595 57.3308C17.2704 57.3308 16.9344 57.25 16.6514 57.0883C16.3701 56.9249 16.1537 56.6941 16.0021 56.396C15.8505 56.0962 15.7747 55.7433 15.7747 55.3374C15.7747 54.9382 15.8505 54.5879 16.0021 54.2864C16.1554 53.9832 16.3693 53.7474 16.6438 53.579C16.9184 53.4089 17.2409 53.3238 17.6115 53.3238C17.8507 53.3238 18.0764 53.3625 18.2886 53.44C18.5025 53.5158 18.6911 53.6337 18.8545 53.7937C19.0196 53.9537 19.1493 54.1575 19.2436 54.4051C19.3379 54.651 19.3851 54.9441 19.3851 55.2844V55.5648H16.2042V54.9483H18.5084C18.5067 54.7732 18.4688 54.6174 18.3947 54.4809C18.3206 54.3428 18.217 54.2342 18.0839 54.155C17.9526 54.0758 17.7993 54.0363 17.6241 54.0363C17.4372 54.0363 17.2729 54.0817 17.1315 54.1727C16.99 54.262 16.8796 54.3799 16.8005 54.5264C16.723 54.6713 16.6834 54.8304 16.6817 55.0039V55.5421C16.6817 55.7678 16.723 55.9615 16.8055 56.1231C16.8881 56.2832 17.0034 56.4061 17.1517 56.492C17.2999 56.5762 17.4734 56.6183 17.6721 56.6183C17.8052 56.6183 17.9256 56.5998 18.0334 56.5628C18.1412 56.524 18.2347 56.4676 18.3139 56.3935C18.393 56.3194 18.4528 56.2276 18.4932 56.1181L19.3472 56.2141C19.2933 56.4398 19.1906 56.6369 19.039 56.8053C18.8891 56.9721 18.697 57.1017 18.4629 57.1944C18.2288 57.2853 17.961 57.3308 17.6595 57.3308ZM20.1588 57.255V53.3743H21.0456V54.0211H21.0861C21.1568 53.7971 21.2781 53.6244 21.4499 53.5032C21.6234 53.3802 21.8213 53.3187 22.0436 53.3187C22.0941 53.3187 22.1506 53.3213 22.2129 53.3263C22.2769 53.3297 22.3299 53.3356 22.372 53.344V54.1853C22.3333 54.1719 22.2718 54.1601 22.1876 54.15C22.1051 54.1382 22.0251 54.1323 21.9476 54.1323C21.7808 54.1323 21.6309 54.1685 21.4979 54.2409C21.3665 54.3117 21.2629 54.4102 21.1871 54.5365C21.1113 54.6628 21.0734 54.8085 21.0734 54.9736V57.255H20.1588ZM23.8943 54.9812V57.255H22.9797V53.3743H23.8538V54.0337H23.8993C23.9886 53.8165 24.1309 53.6438 24.3263 53.5158C24.5234 53.3878 24.7667 53.3238 25.0564 53.3238C25.3243 53.3238 25.5575 53.3811 25.7563 53.4956C25.9567 53.6101 26.1117 53.776 26.2212 53.9933C26.3323 54.2106 26.3871 54.4742 26.3854 54.7841V57.255H25.4708V54.9256C25.4708 54.6662 25.4034 54.4632 25.2687 54.3167C25.1356 54.1702 24.9512 54.0969 24.7154 54.0969C24.5554 54.0969 24.413 54.1323 24.2884 54.203C24.1654 54.2721 24.0686 54.3723 23.9978 54.5037C23.9288 54.635 23.8943 54.7942 23.8943 54.9812ZM28.02 57.255H27.0195L28.8411 52.0808H29.9983L31.8224 57.255H30.8219L29.4399 53.1419H29.3995L28.02 57.255ZM28.0529 55.2262H30.7815V55.9791H28.0529V55.2262ZM33.7855 57.3232C33.4806 57.3232 33.2078 57.2449 32.9669 57.0883C32.726 56.9316 32.5357 56.7042 32.3959 56.4061C32.2561 56.108 32.1862 55.7459 32.1862 55.3197C32.1862 54.8885 32.257 54.5247 32.3984 54.2283C32.5416 53.9302 32.7345 53.7053 32.977 53.5537C33.2196 53.4004 33.4899 53.3238 33.788 53.3238C34.0154 53.3238 34.2024 53.3625 34.3489 53.44C34.4954 53.5158 34.6117 53.6076 34.6976 53.7154C34.7835 53.8215 34.85 53.9217 34.8971 54.0161H34.935V52.0808H35.8522V57.255H34.9527V56.6436H34.8971C34.85 56.7379 34.7818 56.8381 34.6925 56.9443C34.6032 57.0487 34.4853 57.138 34.3388 57.2121C34.1923 57.2862 34.0078 57.3232 33.7855 57.3232ZM34.0407 56.5729C34.2344 56.5729 34.3994 56.5207 34.5359 56.4162C34.6723 56.3101 34.7759 56.1627 34.8466 55.9741C34.9174 55.7854 34.9527 55.5656 34.9527 55.3147C34.9527 55.0637 34.9174 54.8456 34.8466 54.6603C34.7776 54.475 34.6748 54.331 34.5384 54.2283C34.4036 54.1255 34.2377 54.0742 34.0407 54.0742C33.8369 54.0742 33.6667 54.1272 33.5303 54.2333C33.3939 54.3394 33.2911 54.486 33.2221 54.6729C33.153 54.8599 33.1185 55.0738 33.1185 55.3147C33.1185 55.5572 33.153 55.7737 33.2221 55.964C33.2928 56.1526 33.3964 56.3017 33.5328 56.4112C33.671 56.519 33.8402 56.5729 34.0407 56.5729ZM40.2931 53.3743L38.9111 57.255H37.9005L36.5185 53.3743H37.4938L38.3856 56.2571H38.426L39.3204 53.3743H40.2931ZM42.4867 57.3308C42.1078 57.3308 41.7793 57.2474 41.5014 57.0807C41.2235 56.9139 41.0079 56.6807 40.8546 56.3809C40.703 56.081 40.6272 55.7307 40.6272 55.3298C40.6272 54.929 40.703 54.5778 40.8546 54.2763C41.0079 53.9748 41.2235 53.7407 41.5014 53.5739C41.7793 53.4072 42.1078 53.3238 42.4867 53.3238C42.8657 53.3238 43.1942 53.4072 43.4721 53.5739C43.75 53.7407 43.9647 53.9748 44.1163 54.2763C44.2696 54.5778 44.3462 54.929 44.3462 55.3298C44.3462 55.7307 44.2696 56.081 44.1163 56.3809C43.9647 56.6807 43.75 56.9139 43.4721 57.0807C43.1942 57.2474 42.8657 57.3308 42.4867 57.3308ZM42.4918 56.5981C42.6973 56.5981 42.8691 56.5417 43.0072 56.4289C43.1453 56.3143 43.2481 56.161 43.3154 55.969C43.3845 55.777 43.419 55.5631 43.419 55.3273C43.419 55.0898 43.3845 54.8751 43.3154 54.683C43.2481 54.4893 43.1453 54.3352 43.0072 54.2207C42.8691 54.1062 42.6973 54.0489 42.4918 54.0489C42.2813 54.0489 42.1061 54.1062 41.9663 54.2207C41.8282 54.3352 41.7246 54.4893 41.6555 54.683C41.5882 54.8751 41.5545 55.0898 41.5545 55.3273C41.5545 55.5631 41.5882 55.777 41.6555 55.969C41.7246 56.161 41.8282 56.3143 41.9663 56.4289C42.1061 56.5417 42.2813 56.5981 42.4918 56.5981ZM46.8153 57.3308C46.4279 57.3308 46.0952 57.2458 45.8173 57.0756C45.5411 56.9055 45.328 56.6706 45.1781 56.3707C45.0299 56.0693 44.9558 55.7223 44.9558 55.3298C44.9558 54.9357 45.0316 54.5879 45.1831 54.2864C45.3347 53.9832 45.5486 53.7474 45.8249 53.579C46.1028 53.4089 46.4312 53.3238 46.8102 53.3238C47.1252 53.3238 47.4039 53.3819 47.6465 53.4981C47.8907 53.6127 48.0852 53.7752 48.2301 53.9857C48.375 54.1946 48.4575 54.4388 48.4777 54.7184H47.6035C47.5682 54.5315 47.4839 54.3757 47.3509 54.251C47.2195 54.1247 47.0435 54.0615 46.8228 54.0615C46.6359 54.0615 46.4717 54.1121 46.3302 54.2131C46.1887 54.3125 46.0784 54.4557 45.9992 54.6426C45.9217 54.8296 45.883 55.0536 45.883 55.3147C45.883 55.5791 45.9217 55.8065 45.9992 55.9968C46.0767 56.1855 46.1853 56.3312 46.3251 56.4339C46.4666 56.535 46.6325 56.5855 46.8228 56.5855C46.9576 56.5855 47.078 56.5602 47.1841 56.5097C47.2919 56.4575 47.382 56.3825 47.4545 56.2848C47.5269 56.1872 47.5766 56.0684 47.6035 55.9286H48.4777C48.4558 56.2032 48.375 56.4465 48.2352 56.6588C48.0954 56.8693 47.905 57.0344 47.6642 57.154C47.4233 57.2719 47.1403 57.3308 46.8153 57.3308ZM50.3454 57.3333C50.0995 57.3333 49.878 57.2895 49.6809 57.202C49.4856 57.1127 49.3306 56.9813 49.2161 56.8078C49.1032 56.6343 49.0468 56.4204 49.0468 56.1661C49.0468 55.9471 49.0872 55.7661 49.1681 55.6229C49.2489 55.4797 49.3592 55.3652 49.499 55.2793C49.6388 55.1934 49.7963 55.1286 49.9715 55.0848C50.1483 55.0393 50.3311 55.0064 50.5197 54.9862C50.7471 54.9626 50.9316 54.9416 51.073 54.9231C51.2145 54.9029 51.3173 54.8725 51.3813 54.8321C51.447 54.79 51.4798 54.7252 51.4798 54.6376V54.6224C51.4798 54.4321 51.4234 54.2847 51.3105 54.1803C51.1977 54.0758 51.0351 54.0236 50.8229 54.0236C50.5989 54.0236 50.4212 54.0725 50.2898 54.1702C50.1601 54.2679 50.0725 54.3832 50.0271 54.5163L49.1731 54.395C49.2405 54.1592 49.3517 53.9622 49.5066 53.8038C49.6616 53.6438 49.8511 53.5242 50.0751 53.4451C50.2991 53.3642 50.5467 53.3238 50.8179 53.3238C51.0048 53.3238 51.1909 53.3457 51.3762 53.3895C51.5615 53.4333 51.7308 53.5057 51.884 53.6068C52.0373 53.7061 52.1603 53.8417 52.2529 54.0135C52.3472 54.1853 52.3944 54.4001 52.3944 54.6578V57.255H51.5152V56.7219H51.4849C51.4293 56.8297 51.351 56.9308 51.2499 57.0251C51.1505 57.1177 51.025 57.1927 50.8734 57.25C50.7235 57.3056 50.5475 57.3333 50.3454 57.3333ZM50.5829 56.6613C50.7665 56.6613 50.9257 56.6251 51.0604 56.5527C51.1952 56.4785 51.2987 56.3809 51.3712 56.2596C51.4453 56.1383 51.4823 56.0061 51.4823 55.8629V55.4056C51.4537 55.4292 51.4049 55.4511 51.3358 55.4713C51.2684 55.4915 51.1926 55.5092 51.1084 55.5244C51.0242 55.5395 50.9408 55.553 50.8583 55.5648C50.7758 55.5766 50.7042 55.5867 50.6435 55.5951C50.5071 55.6136 50.385 55.644 50.2772 55.6861C50.1694 55.7282 50.0843 55.7871 50.022 55.8629C49.9597 55.937 49.9285 56.033 49.9285 56.1509C49.9285 56.3194 49.99 56.4465 50.113 56.5324C50.2359 56.6183 50.3926 56.6613 50.5829 56.6613ZM55.2519 53.3743V54.0817H53.021V53.3743H55.2519ZM53.5717 52.4446H54.4863V56.0878C54.4863 56.2107 54.5049 56.3051 54.5419 56.3707C54.5807 56.4348 54.6312 56.4785 54.6935 56.5021C54.7558 56.5257 54.8249 56.5375 54.9007 56.5375C54.9579 56.5375 55.0102 56.5333 55.0573 56.5249C55.1062 56.5164 55.1432 56.5089 55.1685 56.5021L55.3226 57.2171C55.2738 57.234 55.2039 57.2525 55.1129 57.2727C55.0236 57.2929 54.9142 57.3047 54.7845 57.3081C54.5554 57.3148 54.3491 57.2803 54.1655 57.2045C53.9819 57.127 53.8362 57.0074 53.7284 56.8457C53.6223 56.684 53.5701 56.4819 53.5717 56.2394V52.4446ZM57.6931 57.3308C57.304 57.3308 56.968 57.25 56.685 57.0883C56.4037 56.9249 56.1873 56.6941 56.0357 56.396C55.8841 56.0962 55.8083 55.7433 55.8083 55.3374C55.8083 54.9382 55.8841 54.5879 56.0357 54.2864C56.189 53.9832 56.4029 53.7474 56.6774 53.579C56.952 53.4089 57.2745 53.3238 57.6451 53.3238C57.8843 53.3238 58.11 53.3625 58.3222 53.44C58.5361 53.5158 58.7247 53.6337 58.8881 53.7937C59.0532 53.9537 59.1829 54.1575 59.2772 54.4051C59.3715 54.651 59.4187 54.9441 59.4187 55.2844V55.5648H56.2378V54.9483H58.542C58.5403 54.7732 58.5024 54.6174 58.4283 54.4809C58.3542 54.3428 58.2506 54.2342 58.1175 54.155C57.9862 54.0758 57.8329 54.0363 57.6577 54.0363C57.4708 54.0363 57.3065 54.0817 57.1651 54.1727C57.0236 54.262 56.9132 54.3799 56.8341 54.5264C56.7566 54.6713 56.717 54.8304 56.7153 55.0039V55.5421C56.7153 55.7678 56.7566 55.9615 56.8391 56.1231C56.9217 56.2832 57.037 56.4061 57.1853 56.492C57.3335 56.5762 57.507 56.6183 57.7057 56.6183C57.8388 56.6183 57.9592 56.5998 58.067 56.5628C58.1748 56.524 58.2683 56.4676 58.3475 56.3935C58.4266 56.3194 58.4864 56.2276 58.5268 56.1181L59.3808 56.2141C59.3269 56.4398 59.2241 56.6369 59.0726 56.8053C58.9227 56.9721 58.7306 57.1017 58.4965 57.1944C58.2624 57.2853 57.9946 57.3308 57.6931 57.3308ZM63.2596 54.4001L62.4259 54.491C62.4023 54.4068 62.361 54.3277 62.3021 54.2535C62.2448 54.1794 62.1673 54.1196 62.0696 54.0742C61.9719 54.0287 61.8523 54.0059 61.7109 54.0059C61.5205 54.0059 61.3605 54.0472 61.2308 54.1297C61.1028 54.2123 61.0396 54.3192 61.0413 54.4506C61.0396 54.5635 61.0809 54.6553 61.1651 54.726C61.251 54.7967 61.3925 54.8548 61.5896 54.9003L62.2515 55.0418C62.6187 55.121 62.8916 55.2465 63.0701 55.4183C63.2503 55.5901 63.3413 55.8149 63.343 56.0928C63.3413 56.3371 63.2697 56.5527 63.1282 56.7396C62.9884 56.9249 62.7939 57.0697 62.5446 57.1742C62.2953 57.2786 62.009 57.3308 61.6856 57.3308C61.2106 57.3308 60.8283 57.2314 60.5386 57.0327C60.2489 56.8323 60.0762 56.5535 60.0206 56.1964L60.9125 56.1105C60.9529 56.2857 61.0388 56.4179 61.1702 56.5072C61.3016 56.5964 61.4725 56.6411 61.6831 56.6411C61.9003 56.6411 62.0747 56.5964 62.206 56.5072C62.3391 56.4179 62.4056 56.3076 62.4056 56.1762C62.4056 56.065 62.3627 55.9732 62.2768 55.9008C62.1926 55.8284 62.0612 55.7728 61.8827 55.7341L61.2207 55.5951C60.8485 55.5176 60.5731 55.3871 60.3945 55.2035C60.216 55.0182 60.1276 54.7841 60.1293 54.5011C60.1276 54.262 60.1924 54.0548 60.3238 53.8796C60.4569 53.7028 60.6413 53.5663 60.8771 53.4703C61.1146 53.3726 61.3883 53.3238 61.6982 53.3238C62.153 53.3238 62.5109 53.4206 62.772 53.6143C63.0347 53.808 63.1973 54.07 63.2596 54.4001ZM66.8396 52.0808V57.255H65.9023V52.0808H66.8396ZM68.7288 54.9812V57.255H67.8142V53.3743H68.6884V54.0337H68.7339C68.8231 53.8165 68.9655 53.6438 69.1609 53.5158C69.3579 53.3878 69.6013 53.3238 69.891 53.3238C70.1588 53.3238 70.3921 53.3811 70.5909 53.4956C70.7913 53.6101 70.9462 53.776 71.0557 53.9933C71.1669 54.2106 71.2216 54.4742 71.22 54.7841V57.255H70.3054V54.9256C70.3054 54.6662 70.238 54.4632 70.1032 54.3167C69.9702 54.1702 69.7857 54.0969 69.5499 54.0969C69.3899 54.0969 69.2476 54.1323 69.123 54.203C69 54.2721 68.9032 54.3723 68.8324 54.5037C68.7634 54.635 68.7288 54.7942 68.7288 54.9812ZM73.8425 57.3308C73.4551 57.3308 73.1224 57.2458 72.8445 57.0756C72.5683 56.9055 72.3552 56.6706 72.2053 56.3707C72.0571 56.0693 71.983 55.7223 71.983 55.3298C71.983 54.9357 72.0588 54.5879 72.2103 54.2864C72.3619 53.9832 72.5758 53.7474 72.8521 53.579C73.13 53.4089 73.4584 53.3238 73.8374 53.3238C74.1524 53.3238 74.4311 53.3819 74.6737 53.4981C74.9179 53.6127 75.1124 53.7752 75.2573 53.9857C75.4022 54.1946 75.4847 54.4388 75.5049 54.7184H74.6307C74.5954 54.5315 74.5111 54.3757 74.3781 54.251C74.2467 54.1247 74.0707 54.0615 73.85 54.0615C73.6631 54.0615 73.4989 54.1121 73.3574 54.2131C73.2159 54.3125 73.1056 54.4557 73.0264 54.6426C72.9489 54.8296 72.9102 55.0536 72.9102 55.3147C72.9102 55.5791 72.9489 55.8065 73.0264 55.9968C73.1039 56.1855 73.2125 56.3312 73.3523 56.4339C73.4938 56.535 73.6597 56.5855 73.85 56.5855C73.9848 56.5855 74.1052 56.5602 74.2113 56.5097C74.3191 56.4575 74.4092 56.3825 74.4817 56.2848C74.5541 56.1872 74.6038 56.0684 74.6307 55.9286H75.5049C75.483 56.2032 75.4022 56.4465 75.2624 56.6588C75.1226 56.8693 74.9322 57.0344 74.6914 57.154C74.4505 57.2719 74.1675 57.3308 73.8425 57.3308Z" fill="#111827"/>
</svg>
